<svg width="104" height="51" viewBox="0 0 104 51" fill="none" xmlns="http://www.w3.org/2000/svg">
<path d="M0 9.66576C0 5.83659 3.10416 2.73242 6.93333 2.73242H16.4098V43.8394C16.4098 47.6686 13.3057 50.7728 9.4765 50.7728H0V9.66576Z" fill="white"/>
<path d="M17.582 24.465H23.6416C31.2999 24.465 37.5083 30.6733 37.5083 38.3316V50.7728H24.5154C20.6862 50.7728 17.582 47.6686 17.582 43.8394V24.465Z" fill="white"/>
<ellipse cx="25.9631" cy="13.0474" rx="9.96311" ry="10.2944" fill="white"/>
<path d="M41.0372 26.8917L43.7889 11.6492C43.8033 11.5914 43.8394 11.5625 43.8972 11.5625H47.1147C47.1725 11.5625 47.2086 11.5914 47.2231 11.6492L49.8664 26.8917C49.8736 26.9639 49.8447 27 49.7797 27H47.3206C47.2483 27 47.2086 26.9639 47.2014 26.8917L46.9631 25.2667H43.9406L43.7022 26.8917C43.695 26.9639 43.6589 27 43.5939 27H41.1239C41.0661 27 41.0372 26.9639 41.0372 26.8917ZM45.6089 16.665L45.4789 15.8417L45.3814 16.665L44.3847 22.8942H46.5189L45.6089 16.665ZM54.8606 27.2167C54.0589 27.2167 53.3367 27.0181 52.6939 26.6209C52.0439 26.2236 51.5203 25.6892 51.1231 25.0175C50.7331 24.3459 50.5381 23.5948 50.5381 22.7642V15.7334C50.5381 14.9245 50.7367 14.1878 51.1339 13.5234C51.5239 12.8517 52.0475 12.3173 52.7047 11.92C53.3619 11.5156 54.0806 11.3134 54.8606 11.3134C55.6767 11.3134 56.4133 11.5084 57.0706 11.8984C57.7278 12.2956 58.2478 12.8264 58.6306 13.4909C59.0206 14.1553 59.2156 14.9028 59.2156 15.7334V16.7517C59.2156 16.8095 59.1794 16.8384 59.1072 16.8384H56.6156C56.5578 16.8384 56.5289 16.8095 56.5289 16.7517V15.9067C56.5289 15.3434 56.37 14.8775 56.0522 14.5092C55.7344 14.1409 55.3372 13.9567 54.8606 13.9567C54.4344 13.9567 54.0553 14.1336 53.7231 14.4875C53.3908 14.8414 53.2247 15.2567 53.2247 15.7334V22.7642C53.2247 23.2481 53.3872 23.667 53.7122 24.0209C54.0372 24.3675 54.42 24.5409 54.8606 24.5409C55.3372 24.5409 55.7344 24.3711 56.0522 24.0317C56.37 23.685 56.5289 23.2625 56.5289 22.7642V21.67H54.9797C54.9003 21.67 54.8606 21.6339 54.8606 21.5617V19.0809C54.8606 19.0086 54.9003 18.9725 54.9797 18.9725H59.1289C59.1867 18.9725 59.2156 19.0086 59.2156 19.0809V22.7642C59.2156 23.5948 59.0206 24.3459 58.6306 25.0175C58.2333 25.6892 57.7097 26.2236 57.0597 26.6209C56.4097 27.0181 55.6767 27.2167 54.8606 27.2167Z" fill="white"/>
<path d="M46.5189 46.4134H44.0164C43.9514 46.4134 43.9189 46.3772 43.9189 46.305V33.6517H41.0372C40.965 33.6517 40.9289 33.6156 40.9289 33.5434L40.9506 31.0625C40.9506 31.0048 40.9794 30.9759 41.0372 30.9759H49.4656C49.545 30.9759 49.5847 31.0048 49.5847 31.0625V33.5434C49.5847 33.6156 49.5558 33.6517 49.4981 33.6517H46.5839L46.6056 46.305C46.6056 46.3772 46.5767 46.4134 46.5189 46.4134ZM57.9264 46.4134H50.7547C50.6969 46.4134 50.6681 46.3772 50.6681 46.305L50.6897 31.0625C50.6897 31.0048 50.7186 30.9759 50.7764 30.9759H57.9047C57.9625 30.9759 57.9914 31.012 57.9914 31.0842V33.565C57.9914 33.6228 57.9625 33.6517 57.9047 33.6517H53.3547V37.1184H57.9047C57.9625 37.1184 57.9914 37.1473 57.9914 37.205L58.0131 39.7184C58.0131 39.7761 57.9842 39.805 57.9264 39.805H53.3547V43.6834H57.9264C57.9842 43.6834 58.0131 43.7195 58.0131 43.7917V46.3267C58.0131 46.3845 57.9842 46.4134 57.9264 46.4134ZM59.2372 46.305L61.9889 31.0625C62.0033 31.0048 62.0394 30.9759 62.0972 30.9759H65.3147C65.3725 30.9759 65.4086 31.0048 65.423 31.0625L68.0664 46.305C68.0736 46.3772 68.0447 46.4134 67.9797 46.4134H65.5205C65.4483 46.4134 65.4086 46.3772 65.4014 46.305L65.163 44.68H62.1405L61.9022 46.305C61.895 46.3772 61.8589 46.4134 61.7939 46.4134H59.3239C59.2661 46.4134 59.2372 46.3772 59.2372 46.305ZM63.8089 36.0784L63.6789 35.255L63.5814 36.0784L62.5847 42.3075H64.7189L63.8089 36.0784ZM73.0822 46.63C72.2805 46.63 71.5475 46.4278 70.883 46.0234C70.2258 45.6189 69.7022 45.0773 69.3122 44.3984C68.9294 43.7123 68.738 42.9503 68.738 42.1125L68.7597 35.19C68.7597 34.3667 68.9475 33.6228 69.323 32.9584C69.6986 32.2867 70.215 31.7486 70.8722 31.3442C71.5367 30.9325 72.2733 30.7267 73.0822 30.7267C73.9055 30.7267 74.6386 30.9253 75.2814 31.3225C75.9314 31.7198 76.4478 32.2578 76.8305 32.9367C77.2205 33.6084 77.4155 34.3595 77.4155 35.19V36.2084C77.4155 36.2661 77.3867 36.295 77.3289 36.295H74.8372C74.7794 36.295 74.7505 36.2661 74.7505 36.2084V35.19C74.7505 34.6989 74.5917 34.2764 74.2739 33.9225C73.9561 33.5686 73.5589 33.3917 73.0822 33.3917C72.555 33.3917 72.1505 33.5723 71.8689 33.9334C71.5872 34.2945 71.4464 34.7134 71.4464 35.19V42.1125C71.4464 42.6542 71.6053 43.0984 71.923 43.445C72.2408 43.7845 72.6272 43.9542 73.0822 43.9542C73.5589 43.9542 73.9561 43.7664 74.2739 43.3909C74.5917 43.0081 74.7505 42.582 74.7505 42.1125V41.0834C74.7505 41.0256 74.7794 40.9967 74.8372 40.9967H77.3505C77.4083 40.9967 77.4372 41.0256 77.4372 41.0834V42.1125C77.4372 42.9431 77.2422 43.7014 76.8522 44.3875C76.455 45.0664 75.9314 45.6117 75.2814 46.0234C74.6314 46.4278 73.8983 46.63 73.0822 46.63ZM81.6514 46.4134H79.138C79.0803 46.4134 79.0514 46.3772 79.0514 46.305L79.073 31.0625C79.073 31.0048 79.1092 30.9759 79.1814 30.9759H81.6514C81.7236 30.9759 81.7597 31.0048 81.7597 31.0625L81.738 37.0967H85.0639V31.0625C85.0639 31.0048 85.0928 30.9759 85.1505 30.9759H87.6205C87.6928 30.9759 87.7289 31.0048 87.7289 31.0625L87.7722 46.305C87.7722 46.3772 87.7361 46.4134 87.6639 46.4134H85.1722C85.1 46.4134 85.0639 46.3772 85.0639 46.305V39.7834H81.738V46.305C81.738 46.3772 81.7091 46.4134 81.6514 46.4134Z" fill="white"/>
</svg>
