<svg width="104" height="50" viewBox="0 0 104 50" fill="none" xmlns="http://www.w3.org/2000/svg">
<path d="M0 9.62419C0 5.79501 3.10416 2.69086 6.93333 2.69086H16.4098V43.0667C16.4098 46.8959 13.3057 50 9.4765 50H0V9.62419Z" fill="#082214"/>
<path d="M17.582 24.0925H23.6416C31.2999 24.0925 37.5083 30.3008 37.5083 37.9591V49.9999H24.5154C20.6862 49.9999 17.582 46.8957 17.582 43.0666V24.0925Z" fill="#082214"/>
<ellipse cx="27.2971" cy="12.8691" rx="9.96311" ry="10.1377" fill="#082214"/>
<path d="M41.0372 26.8917L43.7889 11.6492C43.8033 11.5914 43.8394 11.5625 43.8972 11.5625H47.1147C47.1725 11.5625 47.2086 11.5914 47.2231 11.6492L49.8664 26.8917C49.8736 26.9639 49.8447 27 49.7797 27H47.3206C47.2483 27 47.2086 26.9639 47.2014 26.8917L46.9631 25.2667H43.9406L43.7022 26.8917C43.695 26.9639 43.6589 27 43.5939 27H41.1239C41.0661 27 41.0372 26.9639 41.0372 26.8917ZM45.6089 16.665L45.4789 15.8417L45.3814 16.665L44.3847 22.8942H46.5189L45.6089 16.665ZM54.8606 27.2167C54.0589 27.2167 53.3367 27.0181 52.6939 26.6209C52.0439 26.2236 51.5203 25.6892 51.1231 25.0175C50.7331 24.3459 50.5381 23.5948 50.5381 22.7642V15.7334C50.5381 14.9245 50.7367 14.1878 51.1339 13.5234C51.5239 12.8517 52.0475 12.3173 52.7047 11.92C53.3619 11.5156 54.0806 11.3134 54.8606 11.3134C55.6767 11.3134 56.4133 11.5084 57.0706 11.8984C57.7278 12.2956 58.2478 12.8264 58.6306 13.4909C59.0206 14.1553 59.2156 14.9028 59.2156 15.7334V16.7517C59.2156 16.8095 59.1794 16.8384 59.1072 16.8384H56.6156C56.5578 16.8384 56.5289 16.8095 56.5289 16.7517V15.9067C56.5289 15.3434 56.37 14.8775 56.0522 14.5092C55.7344 14.1409 55.3372 13.9567 54.8606 13.9567C54.4344 13.9567 54.0553 14.1336 53.7231 14.4875C53.3908 14.8414 53.2247 15.2567 53.2247 15.7334V22.7642C53.2247 23.2481 53.3872 23.667 53.7122 24.0209C54.0372 24.3675 54.42 24.5409 54.8606 24.5409C55.3372 24.5409 55.7344 24.3711 56.0522 24.0317C56.37 23.685 56.5289 23.2625 56.5289 22.7642V21.67H54.9797C54.9003 21.67 54.8606 21.6339 54.8606 21.5617V19.0809C54.8606 19.0086 54.9003 18.9725 54.9797 18.9725H59.1289C59.1867 18.9725 59.2156 19.0086 59.2156 19.0809V22.7642C59.2156 23.5948 59.0206 24.3459 58.6306 25.0175C58.2333 25.6892 57.7097 26.2236 57.0597 26.6209C56.4097 27.0181 55.6767 27.2167 54.8606 27.2167Z" fill="#082214"/>
<path d="M46.5189 46.1179H44.0164C43.9514 46.1179 43.9189 46.0818 43.9189 46.0096V33.3563H41.0372C40.965 33.3563 40.9289 33.3201 40.9289 33.2479L40.9506 30.7671C40.9506 30.7093 40.9794 30.6804 41.0372 30.6804H49.4656C49.545 30.6804 49.5847 30.7093 49.5847 30.7671V33.2479C49.5847 33.3201 49.5558 33.3563 49.4981 33.3563H46.5839L46.6056 46.0096C46.6056 46.0818 46.5767 46.1179 46.5189 46.1179ZM57.9264 46.1179H50.7547C50.6969 46.1179 50.6681 46.0818 50.6681 46.0096L50.6897 30.7671C50.6897 30.7093 50.7186 30.6804 50.7764 30.6804H57.9047C57.9625 30.6804 57.9914 30.7165 57.9914 30.7888V33.2696C57.9914 33.3274 57.9625 33.3563 57.9047 33.3563H53.3547V36.8229H57.9047C57.9625 36.8229 57.9914 36.8518 57.9914 36.9096L58.0131 39.4229C58.0131 39.4807 57.9842 39.5096 57.9264 39.5096H53.3547V43.3879H57.9264C57.9842 43.3879 58.0131 43.424 58.0131 43.4963V46.0313C58.0131 46.089 57.9842 46.1179 57.9264 46.1179ZM59.2372 46.0096L61.9889 30.7671C62.0033 30.7093 62.0394 30.6804 62.0972 30.6804H65.3147C65.3725 30.6804 65.4086 30.7093 65.423 30.7671L68.0664 46.0096C68.0736 46.0818 68.0447 46.1179 67.9797 46.1179H65.5205C65.4483 46.1179 65.4086 46.0818 65.4014 46.0096L65.163 44.3846H62.1405L61.9022 46.0096C61.895 46.0818 61.8589 46.1179 61.7939 46.1179H59.3239C59.2661 46.1179 59.2372 46.0818 59.2372 46.0096ZM63.8089 35.7829L63.6789 34.9596L63.5814 35.7829L62.5847 42.0121H64.7189L63.8089 35.7829ZM73.0822 46.3346C72.2805 46.3346 71.5475 46.1324 70.883 45.7279C70.2258 45.3235 69.7022 44.7818 69.3122 44.1029C68.9294 43.4168 68.738 42.6549 68.738 41.8171L68.7597 34.8946C68.7597 34.0713 68.9475 33.3274 69.323 32.6629C69.6986 31.9913 70.215 31.4532 70.8722 31.0488C71.5367 30.6371 72.2733 30.4313 73.0822 30.4313C73.9055 30.4313 74.6386 30.6299 75.2814 31.0271C75.9314 31.4243 76.4478 31.9624 76.8305 32.6413C77.2205 33.3129 77.4155 34.064 77.4155 34.8946V35.9129C77.4155 35.9707 77.3867 35.9996 77.3289 35.9996H74.8372C74.7794 35.9996 74.7505 35.9707 74.7505 35.9129V34.8946C74.7505 34.4035 74.5917 33.981 74.2739 33.6271C73.9561 33.2732 73.5589 33.0963 73.0822 33.0963C72.555 33.0963 72.1505 33.2768 71.8689 33.6379C71.5872 33.999 71.4464 34.4179 71.4464 34.8946V41.8171C71.4464 42.3588 71.6053 42.8029 71.923 43.1496C72.2408 43.489 72.6272 43.6588 73.0822 43.6588C73.5589 43.6588 73.9561 43.471 74.2739 43.0954C74.5917 42.7126 74.7505 42.2865 74.7505 41.8171V40.7879C74.7505 40.7301 74.7794 40.7013 74.8372 40.7013H77.3505C77.4083 40.7013 77.4372 40.7301 77.4372 40.7879V41.8171C77.4372 42.6476 77.2422 43.406 76.8522 44.0921C76.455 44.771 75.9314 45.3163 75.2814 45.7279C74.6314 46.1324 73.8983 46.3346 73.0822 46.3346ZM81.6514 46.1179H79.138C79.0803 46.1179 79.0514 46.0818 79.0514 46.0096L79.073 30.7671C79.073 30.7093 79.1092 30.6804 79.1814 30.6804H81.6514C81.7236 30.6804 81.7597 30.7093 81.7597 30.7671L81.738 36.8013H85.0639V30.7671C85.0639 30.7093 85.0928 30.6804 85.1505 30.6804H87.6205C87.6928 30.6804 87.7289 30.7093 87.7289 30.7671L87.7722 46.0096C87.7722 46.0818 87.7361 46.1179 87.6639 46.1179H85.1722C85.1 46.1179 85.0639 46.0818 85.0639 46.0096V39.4879H81.738V46.0096C81.738 46.0818 81.7091 46.1179 81.6514 46.1179Z" fill="#082214"/>
</svg>
