<svg width="23" height="21" viewBox="0 0 23 21" fill="none" xmlns="http://www.w3.org/2000/svg">
<path d="M13.759 6.16016V3.91016C13.759 3.31342 13.5338 2.74112 13.1328 2.31917C12.7319 1.89721 12.1881 1.66016 11.621 1.66016H4.13801C3.57097 1.66016 3.02716 1.89721 2.62621 2.31917C2.22525 2.74112 2 3.31342 2 3.91016V17.4102C2 18.0069 2.22525 18.5792 2.62621 19.0011C3.02716 19.4231 3.57097 19.6602 4.13801 19.6602H11.621C12.1881 19.6602 12.7319 19.4231 13.1328 19.0011C13.5338 18.5792 13.759 18.0069 13.759 17.4102V15.1602" stroke="#516079" stroke-width="2.25" stroke-linecap="round" stroke-linejoin="round"/>
<path d="M8.41406 10.6602H21.2421M21.2421 10.6602L18.0351 7.28516M21.2421 10.6602L18.0351 14.0352" stroke="#516079" stroke-width="2.25" stroke-linecap="round" stroke-linejoin="round"/>
</svg>
